pedal_clip_forces_x_-0.09_y_-0.06.mot
version=1
nRows=106
nColumns=4
inDegrees=yes
endheader
time	PedalClip_calcn_r_Fx	PedalClip_calcn_r_Fy	PedalClip_calcn_r_Fz
0	10.1405418042626	11.333883061727	0
0.00109103	9.97583141708162	11.5633660517636	0
0.00551915	9.81057833002907	11.7892901888055	0
0.00994726	9.64479098113121	12.0116754133209	0
0.01437538	9.47847832967549	12.2305425793086	0
0.01732332	9.31164934194604	12.4459135102323	0
0.02114642	9.14431298644327	12.6578110592721	0
0.02414135	8.97647822843797	12.8662591742785	0
0.02818943	8.80815404547604	13.0712829678446	0
0.03038677	8.63934948064139	13.2729099810711	0
0.03337597	8.47007382504236	13.4711738799056	0
0.0362024	8.30033755787242	13.6661122790974	0
0.0393931	8.13015200415322	13.8577681582158	0
0.04140052	7.95952817223052	14.0461887091114	0
0.04398469	7.78847722419568	14.2314208183758	0
0.04583425	7.61700943102221	14.4135122090859	0
0.04821813	7.44513394249728	14.5925122548585	0
0.04949683	7.2728588218582	14.7684698132372	0
0.0513443	7.10019166438472	14.941431759691	0
0.05273877	6.92713926506611	15.1114427181306	0
0.05441137	6.75370762637984	15.2785450432398	0
0.05573727	6.57990182820554	15.4427787961182	0
0.05738924	6.40572610294656	15.6041817150803	0
0.05876897	6.23118369669081	15.7627891274875	0
0.06026071	6.05627697694722	15.9186338402119	0
0.06128127	5.88100729601807	16.0717460009112	0
0.06258411	5.70537515770372	16.2221529184902	0
0.06359879	5.52937991355141	16.3698789365696	0
0.06496214	5.35301995960742	16.5149450168816	0
0.06585187	5.17629253134306	16.6573684841454	0
0.06674161	4.99919390834428	16.7971626685838	0
0.06702677	4.82171886140952	16.9343371693328	0
0.06821164	4.64386079666587	17.06889683233	0
0.0697246	4.46561170588151	17.2008409560842	0
0.07033912	4.28696240891404	17.3301624747318	0
0.07126114	4.10790301142397	17.4568470626751	0
0.07209602	3.92842278156219	17.5808725559994	0
0.07293089	3.74851045662511	17.7022081017607	0
0.07317959	3.56815388046984	17.8208145186065	0
0.07416491	3.38734102823612	17.9366420506154	0
0.07548871	3.20606093994208	18.0496282986283	0
0.0757481	3.024305443154	18.1596959801086	0
0.07677363	2.84207174235722	18.2667503635142	0
0.07780897	2.65936555245993	18.3706762235301	0
0.07884432	2.47620558584096	18.4713349314537	0
0.07925466	2.29262842307033	18.5685637247963	0
0.0799244	2.10869722389257	18.6621723224269	0
0.08063198	1.92450899190643	18.7519447433489	0
0.08133956	1.74019394436691	18.8376556385307	0
0.0817589	1.55589107651556	18.9191200350346	0
0.08234452	1.37144853043608	19.0008363872545	0
0.08304009	1.1869808137133	19.0815266835628	0
0.08373566	1.00252344857687	19.1614730598613	0
0.08412231	0.818123784524535	19.2409932167629	0
0.08465253	0.633838198395138	19.3204394508223	0
0.08532618	0.449743660591748	19.4002015985858	0
0.08599984	0.265949733566861	19.4807246560827	0
0.08633578	0.0825652317911423	19.5624364606915	0
0.08678021	-0.100333072701352	19.6456279212835	0
0.08748046	-0.282695795698289	19.730408157514	0
0.08818072	-0.464531728449756	19.8168075919582	0
0.0885049	-0.645860878097446	19.9047020006759	0
0.08893067	-0.826677804057565	19.993900520598	0
0.08958617	-1.00695176277704	20.0841832794988	0
0.09024166	-1.18661211252238	20.1752568955292	0
0.09055295	-1.36557172806441	20.2668910988247	0
0.09094598	-1.5437819099532	20.3589873794537	0
0.09158621	-1.72123306909469	20.4515242412109	0
0.09222645	-1.89789868749145	20.5444533490071	0
0.09258184	-2.07373933992644	20.6377215462648	0
0.09297534	-2.24871839143429	20.7313110731673	0
0.0935586	-2.42282407435058	20.8252441781309	0
0.09414186	-2.59605747585351	20.9195405572807	0
0.0945151	-2.76840857225277	21.0141843518186	0
0.09489744	-2.93984669628271	21.1091202415136	0
0.09544808	-3.11033567704052	21.2042809574278	0
0.09599872	-3.27985964341943	21.2996364833736	0
0.096419	-3.44842866902592	21.3951908542884	0
0.09683742	-3.61603460405455	21.4909219690964	0
0.09733481	-3.78267501489178	21.586802952187	0
0.0978322	-3.9483235496879	21.6827912491861	0
0.09855157	-4.1129576435105	21.7788572230158	0
0.09928502	-4.27654758306649	21.8749547628222	0
0.09938771	-4.43906282341838	21.9710179128255	0
0.09963044	-4.60048582529671	22.0669812311089	0
0.10010044	-4.76083470664707	22.1628313920271	0
0.10047002	-4.92015519498325	22.258592569631	0
0.10095214	-5.07848166632539	22.3542774673989	0
0.10143426	-5.2358325389652	22.4498888187997	0
0.10148247	-5.39221155764961	22.5454165187269	0
0.10163498	-5.5476314128938	22.6408566460382	0
0.10189047	-5.70214781357852	22.7362663574233	0
0.10227925	-5.85584310468183	22.8317408690548	0
0.10247364	-6.00880024327745	22.927362691226	0
0.1032201	-6.16107103040736	23.0231613719776	0
0.10329474	-6.31270698789632	23.1191577237754	0
0.10336939	-6.46375886773731	23.2153706901182	0
0.10374262	-6.61429199697519	23.3118524976862	0
0.10411997	-6.76438329058435	23.4086759997451	0
0.10453737	-6.91412723789269	23.505933105294	0
0.10471668	-7.06359305046733	23.6036773912889	0
0.10497906	-7.21282008783738	23.7019131883968	0
0.10511025	-7.36183241246191	23.8006215061253	0
0.10545039	-7.51067457485451	23.8998478735981	0
0.10588672	-7.6594120092394	23.9996830974246	0
0.10632305	-7.80811407584548	24.1002038031109	0
